<mxfile host="www.draw.io" modified="2020-03-02T15:42:10.875Z" agent="Mozilla/5.0 (X11; Linux x86_64) AppleWebKit/537.36 (KHTML, like Gecko) Chrome/80.0.3987.87 Safari/537.36" etag="Yto6-ptBJJ_eKxEYVxxT" version="12.7.9" type="github">
  <diagram id="61gwHB72jz1n_dkn7dot" name="Page-1">
    <mxGraphModel dx="3210" dy="1193" grid="1" gridSize="10" guides="1" tooltips="1" connect="1" arrows="1" fold="1" page="1" pageScale="1" pageWidth="827" pageHeight="1169" math="0" shadow="0">
      <root>
        <mxCell id="0" />
        <mxCell id="1" parent="0" />
        <mxCell id="kAX478KW7V_OLCO_fG0C-1" value="" style="ellipse;whiteSpace=wrap;html=1;" parent="1" vertex="1">
          <mxGeometry x="500" y="240" width="240" height="140" as="geometry" />
        </mxCell>
        <mxCell id="kAX478KW7V_OLCO_fG0C-2" value="Terminus Core DB" style="text;html=1;strokeColor=none;fillColor=none;align=center;verticalAlign=middle;whiteSpace=wrap;rounded=0;" parent="1" vertex="1">
          <mxGeometry x="600" y="250" width="40" height="20" as="geometry" />
        </mxCell>
        <mxCell id="kAX478KW7V_OLCO_fG0C-19" style="edgeStyle=orthogonalEdgeStyle;rounded=0;orthogonalLoop=1;jettySize=auto;html=1;exitX=0;exitY=0.5;exitDx=0;exitDy=0;entryX=1;entryY=0.75;entryDx=0;entryDy=0;" parent="1" source="kAX478KW7V_OLCO_fG0C-8" target="kAX478KW7V_OLCO_fG0C-18" edge="1">
          <mxGeometry relative="1" as="geometry" />
        </mxCell>
        <mxCell id="kAX478KW7V_OLCO_fG0C-8" value="" style="rhombus;whiteSpace=wrap;html=1;" parent="1" vertex="1">
          <mxGeometry x="520" y="270" width="100" height="90" as="geometry" />
        </mxCell>
        <mxCell id="kAX478KW7V_OLCO_fG0C-9" value="Ralph/My_DB" style="text;html=1;strokeColor=none;fillColor=none;align=center;verticalAlign=middle;whiteSpace=wrap;rounded=0;" parent="1" vertex="1">
          <mxGeometry x="550" y="300" width="40" height="30" as="geometry" />
        </mxCell>
        <mxCell id="kAX478KW7V_OLCO_fG0C-10" value="" style="rhombus;whiteSpace=wrap;html=1;" parent="1" vertex="1">
          <mxGeometry x="630" y="270" width="100" height="90" as="geometry" />
        </mxCell>
        <mxCell id="kAX478KW7V_OLCO_fG0C-11" value="Jenny/Stats" style="text;html=1;strokeColor=none;fillColor=none;align=center;verticalAlign=middle;whiteSpace=wrap;rounded=0;" parent="1" vertex="1">
          <mxGeometry x="660" y="300" width="40" height="30" as="geometry" />
        </mxCell>
        <mxCell id="kAX478KW7V_OLCO_fG0C-13" value="DB" style="text;html=1;align=center;verticalAlign=middle;resizable=0;points=[];autosize=1;" parent="1" vertex="1">
          <mxGeometry x="555" y="280" width="30" height="20" as="geometry" />
        </mxCell>
        <mxCell id="kAX478KW7V_OLCO_fG0C-14" value="DB" style="text;html=1;align=center;verticalAlign=middle;resizable=0;points=[];autosize=1;" parent="1" vertex="1">
          <mxGeometry x="665" y="280" width="30" height="20" as="geometry" />
        </mxCell>
        <mxCell id="kAX478KW7V_OLCO_fG0C-15" value="" style="ellipse;whiteSpace=wrap;html=1;" parent="1" vertex="1">
          <mxGeometry x="-40" y="150" width="300" height="180" as="geometry" />
        </mxCell>
        <mxCell id="kAX478KW7V_OLCO_fG0C-24" style="edgeStyle=orthogonalEdgeStyle;rounded=0;orthogonalLoop=1;jettySize=auto;html=1;entryX=0.5;entryY=0;entryDx=0;entryDy=0;" parent="1" source="kAX478KW7V_OLCO_fG0C-16" target="kAX478KW7V_OLCO_fG0C-23" edge="1">
          <mxGeometry relative="1" as="geometry" />
        </mxCell>
        <mxCell id="kAX478KW7V_OLCO_fG0C-16" value="" style="rhombus;whiteSpace=wrap;html=1;" parent="1" vertex="1">
          <mxGeometry x="10" y="210" width="80" height="80" as="geometry" />
        </mxCell>
        <mxCell id="kAX478KW7V_OLCO_fG0C-17" value="Repository Metadata DB&amp;nbsp;" style="text;html=1;strokeColor=none;fillColor=none;align=center;verticalAlign=middle;whiteSpace=wrap;rounded=0;" parent="1" vertex="1">
          <mxGeometry x="80" y="160" width="90" height="40" as="geometry" />
        </mxCell>
        <mxCell id="kAX478KW7V_OLCO_fG0C-20" value="" style="edgeStyle=orthogonalEdgeStyle;rounded=0;orthogonalLoop=1;jettySize=auto;html=1;" parent="1" source="kAX478KW7V_OLCO_fG0C-18" target="kAX478KW7V_OLCO_fG0C-15" edge="1">
          <mxGeometry relative="1" as="geometry" />
        </mxCell>
        <mxCell id="kAX478KW7V_OLCO_fG0C-18" value="Label: Ralph/My_DB" style="text;html=1;strokeColor=none;fillColor=none;align=center;verticalAlign=middle;whiteSpace=wrap;rounded=0;" parent="1" vertex="1">
          <mxGeometry x="360" y="300" width="90" height="20" as="geometry" />
        </mxCell>
        <mxCell id="kAX478KW7V_OLCO_fG0C-21" value="local" style="text;html=1;strokeColor=none;fillColor=none;align=center;verticalAlign=middle;whiteSpace=wrap;rounded=0;" parent="1" vertex="1">
          <mxGeometry x="30" y="240" width="40" height="20" as="geometry" />
        </mxCell>
        <mxCell id="kAX478KW7V_OLCO_fG0C-23" value="" style="ellipse;whiteSpace=wrap;html=1;" parent="1" vertex="1">
          <mxGeometry x="-201.5" y="360" width="515" height="440" as="geometry" />
        </mxCell>
        <mxCell id="kAX478KW7V_OLCO_fG0C-69" style="edgeStyle=orthogonalEdgeStyle;rounded=0;orthogonalLoop=1;jettySize=auto;html=1;entryX=0.5;entryY=0;entryDx=0;entryDy=0;" parent="1" source="kAX478KW7V_OLCO_fG0C-26" target="kAX478KW7V_OLCO_fG0C-57" edge="1">
          <mxGeometry relative="1" as="geometry" />
        </mxCell>
        <mxCell id="kAX478KW7V_OLCO_fG0C-26" value="" style="rounded=0;whiteSpace=wrap;html=1;" parent="1" vertex="1">
          <mxGeometry x="1" y="595" width="92.5" height="40" as="geometry" />
        </mxCell>
        <mxCell id="kAX478KW7V_OLCO_fG0C-27" value="Commits Metadata DB" style="text;html=1;strokeColor=none;fillColor=none;align=center;verticalAlign=middle;whiteSpace=wrap;rounded=0;" parent="1" vertex="1">
          <mxGeometry x="50" y="378" width="90" height="40" as="geometry" />
        </mxCell>
        <mxCell id="kAX478KW7V_OLCO_fG0C-34" value="" style="edgeStyle=orthogonalEdgeStyle;rounded=0;orthogonalLoop=1;jettySize=auto;html=1;" parent="1" source="kAX478KW7V_OLCO_fG0C-29" edge="1">
          <mxGeometry relative="1" as="geometry">
            <mxPoint x="95" y="474" as="targetPoint" />
          </mxGeometry>
        </mxCell>
        <mxCell id="kAX478KW7V_OLCO_fG0C-29" value="" style="rounded=0;whiteSpace=wrap;html=1;" parent="1" vertex="1">
          <mxGeometry x="45" y="422" width="100" height="40" as="geometry" />
        </mxCell>
        <mxCell id="kAX478KW7V_OLCO_fG0C-50" style="edgeStyle=orthogonalEdgeStyle;rounded=0;orthogonalLoop=1;jettySize=auto;html=1;exitX=0;exitY=0.5;exitDx=0;exitDy=0;entryX=1;entryY=0.5;entryDx=0;entryDy=0;" parent="1" source="kAX478KW7V_OLCO_fG0C-33" target="kAX478KW7V_OLCO_fG0C-49" edge="1">
          <mxGeometry relative="1" as="geometry" />
        </mxCell>
        <mxCell id="kAX478KW7V_OLCO_fG0C-33" value="" style="rounded=0;whiteSpace=wrap;html=1;" parent="1" vertex="1">
          <mxGeometry x="45" y="490" width="100" height="40" as="geometry" />
        </mxCell>
        <mxCell id="kAX478KW7V_OLCO_fG0C-30" value="master" style="text;html=1;strokeColor=none;fillColor=none;align=center;verticalAlign=middle;whiteSpace=wrap;rounded=0;" parent="1" vertex="1">
          <mxGeometry x="75" y="434" width="40" height="20" as="geometry" />
        </mxCell>
        <mxCell id="kAX478KW7V_OLCO_fG0C-39" style="edgeStyle=orthogonalEdgeStyle;rounded=0;orthogonalLoop=1;jettySize=auto;html=1;entryX=0.75;entryY=0;entryDx=0;entryDy=0;" parent="1" source="kAX478KW7V_OLCO_fG0C-28" target="kAX478KW7V_OLCO_fG0C-26" edge="1">
          <mxGeometry relative="1" as="geometry" />
        </mxCell>
        <mxCell id="kAX478KW7V_OLCO_fG0C-28" value="Commit" style="text;html=1;strokeColor=none;fillColor=none;align=center;verticalAlign=middle;whiteSpace=wrap;rounded=0;" parent="1" vertex="1">
          <mxGeometry x="75" y="500" width="40" height="20" as="geometry" />
        </mxCell>
        <mxCell id="kAX478KW7V_OLCO_fG0C-36" value="main" style="text;html=1;strokeColor=none;fillColor=none;align=center;verticalAlign=middle;whiteSpace=wrap;rounded=0;" parent="1" vertex="1">
          <mxGeometry x="30" y="605" width="40" height="20" as="geometry" />
        </mxCell>
        <mxCell id="kAX478KW7V_OLCO_fG0C-40" value="Instance" style="text;html=1;strokeColor=none;fillColor=none;align=center;verticalAlign=middle;whiteSpace=wrap;rounded=0;" parent="1" vertex="1">
          <mxGeometry x="36" y="540" width="40" height="20" as="geometry" />
        </mxCell>
        <mxCell id="kAX478KW7V_OLCO_fG0C-70" style="edgeStyle=orthogonalEdgeStyle;rounded=0;orthogonalLoop=1;jettySize=auto;html=1;entryX=0.5;entryY=0;entryDx=0;entryDy=0;" parent="1" source="kAX478KW7V_OLCO_fG0C-41" target="kAX478KW7V_OLCO_fG0C-59" edge="1">
          <mxGeometry relative="1" as="geometry" />
        </mxCell>
        <mxCell id="kAX478KW7V_OLCO_fG0C-41" value="" style="rounded=0;whiteSpace=wrap;html=1;" parent="1" vertex="1">
          <mxGeometry x="115" y="595" width="92.5" height="40" as="geometry" />
        </mxCell>
        <mxCell id="kAX478KW7V_OLCO_fG0C-42" value="main" style="text;html=1;strokeColor=none;fillColor=none;align=center;verticalAlign=middle;whiteSpace=wrap;rounded=0;" parent="1" vertex="1">
          <mxGeometry x="144" y="605" width="40" height="20" as="geometry" />
        </mxCell>
        <mxCell id="kAX478KW7V_OLCO_fG0C-46" value="Schema" style="text;html=1;strokeColor=none;fillColor=none;align=center;verticalAlign=middle;whiteSpace=wrap;rounded=0;" parent="1" vertex="1">
          <mxGeometry x="115" y="540" width="40" height="20" as="geometry" />
        </mxCell>
        <mxCell id="kAX478KW7V_OLCO_fG0C-47" style="edgeStyle=orthogonalEdgeStyle;rounded=0;orthogonalLoop=1;jettySize=auto;html=1;entryX=0.5;entryY=0;entryDx=0;entryDy=0;" parent="1" source="kAX478KW7V_OLCO_fG0C-28" target="kAX478KW7V_OLCO_fG0C-41" edge="1">
          <mxGeometry relative="1" as="geometry">
            <mxPoint x="95" y="520" as="sourcePoint" />
            <mxPoint x="161.25" y="595" as="targetPoint" />
            <Array as="points">
              <mxPoint x="95" y="530" />
              <mxPoint x="161" y="530" />
            </Array>
          </mxGeometry>
        </mxCell>
        <mxCell id="kAX478KW7V_OLCO_fG0C-49" value="" style="rounded=0;whiteSpace=wrap;html=1;" parent="1" vertex="1">
          <mxGeometry x="-79" y="490" width="80" height="40" as="geometry" />
        </mxCell>
        <mxCell id="kAX478KW7V_OLCO_fG0C-51" value="Parent" style="text;html=1;strokeColor=none;fillColor=none;align=center;verticalAlign=middle;whiteSpace=wrap;rounded=0;" parent="1" vertex="1">
          <mxGeometry x="5" y="490" width="40" height="20" as="geometry" />
        </mxCell>
        <mxCell id="kAX478KW7V_OLCO_fG0C-52" value="" style="endArrow=none;dashed=1;html=1;" parent="1" edge="1">
          <mxGeometry width="50" height="50" relative="1" as="geometry">
            <mxPoint x="-79" y="580" as="sourcePoint" />
            <mxPoint x="-29" y="530" as="targetPoint" />
          </mxGeometry>
        </mxCell>
        <mxCell id="kAX478KW7V_OLCO_fG0C-55" value="Commit" style="text;html=1;strokeColor=none;fillColor=none;align=center;verticalAlign=middle;whiteSpace=wrap;rounded=0;" parent="1" vertex="1">
          <mxGeometry x="-59" y="500" width="40" height="20" as="geometry" />
        </mxCell>
        <mxCell id="kAX478KW7V_OLCO_fG0C-56" value="" style="endArrow=none;dashed=1;html=1;" parent="1" edge="1">
          <mxGeometry width="50" height="50" relative="1" as="geometry">
            <mxPoint x="-109" y="580" as="sourcePoint" />
            <mxPoint x="-59" y="530" as="targetPoint" />
          </mxGeometry>
        </mxCell>
        <mxCell id="kAX478KW7V_OLCO_fG0C-71" style="edgeStyle=orthogonalEdgeStyle;rounded=0;orthogonalLoop=1;jettySize=auto;html=1;entryX=0.75;entryY=0;entryDx=0;entryDy=0;" parent="1" source="kAX478KW7V_OLCO_fG0C-57" target="kAX478KW7V_OLCO_fG0C-61" edge="1">
          <mxGeometry relative="1" as="geometry" />
        </mxCell>
        <mxCell id="kAX478KW7V_OLCO_fG0C-75" style="edgeStyle=orthogonalEdgeStyle;rounded=0;orthogonalLoop=1;jettySize=auto;html=1;" parent="1" source="kAX478KW7V_OLCO_fG0C-57" target="kAX478KW7V_OLCO_fG0C-73" edge="1">
          <mxGeometry relative="1" as="geometry" />
        </mxCell>
        <mxCell id="kAX478KW7V_OLCO_fG0C-57" value="" style="rounded=0;whiteSpace=wrap;html=1;" parent="1" vertex="1">
          <mxGeometry x="1" y="670" width="92.5" height="40" as="geometry" />
        </mxCell>
        <mxCell id="kAX478KW7V_OLCO_fG0C-58" value="layer" style="text;html=1;strokeColor=none;fillColor=none;align=center;verticalAlign=middle;whiteSpace=wrap;rounded=0;" parent="1" vertex="1">
          <mxGeometry x="30" y="680" width="40" height="20" as="geometry" />
        </mxCell>
        <mxCell id="kAX478KW7V_OLCO_fG0C-72" style="edgeStyle=orthogonalEdgeStyle;rounded=0;orthogonalLoop=1;jettySize=auto;html=1;entryX=0.5;entryY=0;entryDx=0;entryDy=0;" parent="1" source="kAX478KW7V_OLCO_fG0C-59" target="kAX478KW7V_OLCO_fG0C-62" edge="1">
          <mxGeometry relative="1" as="geometry" />
        </mxCell>
        <mxCell id="kAX478KW7V_OLCO_fG0C-59" value="" style="rounded=0;whiteSpace=wrap;html=1;" parent="1" vertex="1">
          <mxGeometry x="115" y="670" width="92.5" height="40" as="geometry" />
        </mxCell>
        <mxCell id="kAX478KW7V_OLCO_fG0C-60" value="layer" style="text;html=1;strokeColor=none;fillColor=none;align=center;verticalAlign=middle;whiteSpace=wrap;rounded=0;" parent="1" vertex="1">
          <mxGeometry x="144" y="680" width="40" height="20" as="geometry" />
        </mxCell>
        <mxCell id="kAX478KW7V_OLCO_fG0C-84" style="edgeStyle=orthogonalEdgeStyle;rounded=0;orthogonalLoop=1;jettySize=auto;html=1;" parent="1" source="kAX478KW7V_OLCO_fG0C-61" target="kAX478KW7V_OLCO_fG0C-79" edge="1">
          <mxGeometry relative="1" as="geometry" />
        </mxCell>
        <mxCell id="kAX478KW7V_OLCO_fG0C-61" value="234328usdf89a7w34" style="text;html=1;strokeColor=none;fillColor=none;align=center;verticalAlign=middle;whiteSpace=wrap;rounded=0;" parent="1" vertex="1">
          <mxGeometry x="21" y="740" width="40" height="20" as="geometry" />
        </mxCell>
        <mxCell id="kAX478KW7V_OLCO_fG0C-85" style="edgeStyle=orthogonalEdgeStyle;rounded=0;orthogonalLoop=1;jettySize=auto;html=1;entryX=0.5;entryY=0;entryDx=0;entryDy=0;" parent="1" source="kAX478KW7V_OLCO_fG0C-62" target="kAX478KW7V_OLCO_fG0C-80" edge="1">
          <mxGeometry relative="1" as="geometry" />
        </mxCell>
        <mxCell id="kAX478KW7V_OLCO_fG0C-62" value="3j9ff8233jja38" style="text;html=1;strokeColor=none;fillColor=none;align=center;verticalAlign=middle;whiteSpace=wrap;rounded=0;" parent="1" vertex="1">
          <mxGeometry x="145" y="740" width="40" height="20" as="geometry" />
        </mxCell>
        <mxCell id="kAX478KW7V_OLCO_fG0C-73" value="" style="rounded=0;whiteSpace=wrap;html=1;" parent="1" vertex="1">
          <mxGeometry x="-140" y="670" width="92.5" height="40" as="geometry" />
        </mxCell>
        <mxCell id="kAX478KW7V_OLCO_fG0C-74" value="layer" style="text;html=1;strokeColor=none;fillColor=none;align=center;verticalAlign=middle;whiteSpace=wrap;rounded=0;" parent="1" vertex="1">
          <mxGeometry x="-113.75" y="680" width="40" height="20" as="geometry" />
        </mxCell>
        <mxCell id="kAX478KW7V_OLCO_fG0C-76" value="Parent" style="text;html=1;strokeColor=none;fillColor=none;align=center;verticalAlign=middle;whiteSpace=wrap;rounded=0;" parent="1" vertex="1">
          <mxGeometry x="-39" y="660" width="40" height="20" as="geometry" />
        </mxCell>
        <mxCell id="kAX478KW7V_OLCO_fG0C-77" value="" style="rhombus;whiteSpace=wrap;html=1;" parent="1" vertex="1">
          <mxGeometry x="105" y="210" width="80" height="80" as="geometry" />
        </mxCell>
        <mxCell id="kAX478KW7V_OLCO_fG0C-78" value="Remote" style="text;html=1;strokeColor=none;fillColor=none;align=center;verticalAlign=middle;whiteSpace=wrap;rounded=0;" parent="1" vertex="1">
          <mxGeometry x="125" y="240" width="40" height="20" as="geometry" />
        </mxCell>
        <mxCell id="kAX478KW7V_OLCO_fG0C-79" value="" style="whiteSpace=wrap;html=1;aspect=fixed;" parent="1" vertex="1">
          <mxGeometry x="-110" y="840" width="150" height="150" as="geometry" />
        </mxCell>
        <mxCell id="kAX478KW7V_OLCO_fG0C-80" value="" style="whiteSpace=wrap;html=1;aspect=fixed;" parent="1" vertex="1">
          <mxGeometry x="350" y="800" width="150" height="150" as="geometry" />
        </mxCell>
        <mxCell id="kAX478KW7V_OLCO_fG0C-83" value="head" style="text;html=1;strokeColor=none;fillColor=none;align=center;verticalAlign=middle;whiteSpace=wrap;rounded=0;" parent="1" vertex="1">
          <mxGeometry x="100" y="462" width="40" height="20" as="geometry" />
        </mxCell>
        <mxCell id="kAX478KW7V_OLCO_fG0C-86" value="Actual Layer" style="text;html=1;strokeColor=none;fillColor=none;align=center;verticalAlign=middle;whiteSpace=wrap;rounded=0;" parent="1" vertex="1">
          <mxGeometry x="-79" y="865" width="99" height="55" as="geometry" />
        </mxCell>
        <mxCell id="kAX478KW7V_OLCO_fG0C-87" value="Actual Layer" style="text;html=1;strokeColor=none;fillColor=none;align=center;verticalAlign=middle;whiteSpace=wrap;rounded=0;" parent="1" vertex="1">
          <mxGeometry x="370" y="820" width="99" height="55" as="geometry" />
        </mxCell>
      </root>
    </mxGraphModel>
  </diagram>
</mxfile>
